<?xml version="1.0" encoding="utf-8"?>
<!-- Generator: Adobe Illustrator 18.1.0, SVG Export Plug-In . SVG Version: 6.00 Build 0)  -->
<svg version="1.1" xmlns="http://www.w3.org/2000/svg" xmlns:xlink="http://www.w3.org/1999/xlink" x="0px" y="0px"
	 viewBox="0 0 474.8 103.1" enable-background="new 0 0 474.8 103.1" xml:space="preserve">
<g id="Layer_1" display="none">
	<g id="_x31_myvyR_1_" display="inline" opacity="0.4">
		
			<image overflow="visible" width="433" height="109" id="_x31_myvyR_2_" xlink:href="254193F5893E51A7.jpg"  transform="matrix(1.1547 0 0 1.1547 -8.6504 -9.0423)">
		</image>
	</g>
</g>
<g id="Layer_2">
	<g>
		<path d="M54.9,40.4c0.3,2.3,0.7,5.8,3.4,6.7c1.8,0.6,3.5,0.6,4.1,0.6c0.3,0,0.5,0.1,0.5,0.3c0,0.4-0.6,0.6-1.3,0.6
			c-1.4,0-8.2-0.2-10.5-0.4c-1.4-0.1-1.8-0.3-1.8-0.6c0-0.3,0.1-0.4,0.4-0.4s0.4-1.1,0.3-2.3l-3-32.5h-0.2L31.4,45
			c-1.3,2.8-1.5,3.3-2.1,3.3c-0.4,0-0.8-0.6-2-2.9c-1.6-3.1-7.1-14-7.4-14.6c-0.6-1.1-7.6-16.3-8.3-18h-0.3L8.9,42.1
			c-0.1,1-0.1,2.1-0.1,3.2c0,0.9,0.7,1.8,1.6,2c1.1,0.3,2,0.3,2.4,0.3c0.3,0,0.5,0.1,0.5,0.3c0,0.4-0.4,0.6-1.1,0.6
			c-2.3,0-5.4-0.2-5.9-0.2c-0.6,0-3.6,0.2-5.3,0.2c-0.6,0-1.1-0.1-1.1-0.6c0-0.2,0.3-0.3,0.6-0.3c0.5,0,0.9,0,1.9-0.2
			c2.1-0.4,2.3-2.8,2.5-5.2L9.6,1.1C9.7,0.4,9.9,0,10.3,0c0.4,0,0.6,0.3,0.9,0.9l19.3,39.6L49,1c0.3-0.6,0.5-1,0.9-1
			c0.4,0,0.6,0.5,0.8,1.7L54.9,40.4z"/>
		<path d="M94.7,0c14.2,0,24.8,8.9,24.8,23.6c0,14.1-10,25.8-25.1,25.8C77,49.4,69.9,36,69.9,24.6C69.9,14.4,77.3,0,94.7,0z M96,47
			c5.7,0,17.4-3.3,17.4-21.6c0-15.1-9.2-23.2-19.2-23.2c-10.5,0-18.4,6.9-18.4,20.7C75.9,37.6,84.7,47,96,47z"/>
		<path d="M138.9,39.9c0.1,5.2,0.8,6.8,2.5,7.3c1.2,0.3,2.6,0.4,3.1,0.4c0.3,0,0.5,0.1,0.5,0.4c0,0.4-0.4,0.5-1.1,0.5
			c-3.6,0-6.1-0.2-6.7-0.2c-0.6,0-3.2,0.2-6,0.2c-0.6,0-1-0.1-1-0.5c0-0.3,0.2-0.4,0.5-0.4c0.5,0,1.6-0.1,2.6-0.4
			c1.6-0.4,1.9-2.3,1.9-8l0.1-36.1c0-2.5,0.2-3.2,0.7-3.2s1.6,1.4,2.2,2c0.9,1.1,10.3,11.2,20,21.6c6.2,6.7,13.1,14.4,15.1,16.4
			l-0.7-32c-0.1-4.1-0.5-5.5-2.5-6c-1.1-0.3-2.6-0.3-3.1-0.3c-0.4,0-0.5-0.2-0.5-0.4c0-0.4,0.5-0.4,1.3-0.4c2.8,0,5.9,0.2,6.6,0.2
			s2.8-0.2,5.4-0.2c0.7,0,1.1,0.1,1.1,0.4c0,0.3-0.3,0.4-0.7,0.4c-0.3,0-0.8,0-1.5,0.2c-2.1,0.4-2.3,1.8-2.3,5.6l-0.1,36.9
			c0,4.2-0.1,4.5-0.6,4.5c-0.5,0-1.3-0.7-4.6-4c-0.7-0.6-9.8-9.9-16.4-17.1C147.2,20,140.1,12,138.1,9.8L138.9,39.9z"/>
		<path d="M246.6,40.4c0.3,2.3,0.7,5.8,3.4,6.7c1.8,0.6,3.5,0.6,4.1,0.6c0.3,0,0.5,0.1,0.5,0.3c0,0.4-0.6,0.6-1.3,0.6
			c-1.4,0-8.2-0.2-10.5-0.4c-1.4-0.1-1.8-0.3-1.8-0.6c0-0.3,0.1-0.4,0.4-0.4c0.3-0.1,0.4-1.1,0.3-2.3l-3-32.5h-0.2L223,45
			c-1.3,2.8-1.5,3.3-2.1,3.3c-0.4,0-0.8-0.6-2-2.9c-1.6-3.1-7.1-14-7.4-14.6c-0.6-1.1-7.6-16.3-8.3-18h-0.3l-2.5,29.2
			c-0.1,1-0.1,2.1-0.1,3.2c0,0.9,0.7,1.8,1.6,2c1.1,0.3,2,0.3,2.4,0.3c0.3,0,0.5,0.1,0.5,0.3c0,0.4-0.4,0.6-1.1,0.6
			c-2.3,0-5.4-0.2-5.9-0.2c-0.6,0-3.6,0.2-5.3,0.2c-0.6,0-1.1-0.1-1.1-0.6c0-0.2,0.3-0.3,0.6-0.3c0.5,0,0.9,0,1.9-0.2
			c2.1-0.4,2.3-2.8,2.5-5.2l4.5-41.1c0.1-0.7,0.3-1.1,0.7-1.1s0.6,0.3,0.9,0.9l19.3,39.6L240.7,1c0.3-0.6,0.5-1,0.9-1
			c0.4,0,0.6,0.5,0.8,1.7L246.6,40.4z"/>
		<path d="M285.3,0c14.2,0,24.8,8.9,24.8,23.6c0,14.1-10,25.8-25.1,25.8c-17.3,0-24.4-13.4-24.4-24.8C260.5,14.4,268,0,285.3,0z
			 M286.7,47c5.7,0,17.4-3.3,17.4-21.6c0-15.1-9.2-23.2-19.2-23.2c-10.5,0-18.4,6.9-18.4,20.7C266.5,37.6,275.3,47,286.7,47z"/>
		<path d="M324.5,19.2c0-9.8,0-11.6-0.1-13.6c-0.1-2.1-0.6-3.2-2.7-3.6c-0.5-0.1-1.6-0.2-2.1-0.2c-0.3,0-0.5-0.1-0.5-0.4
			c0-0.4,0.3-0.5,1-0.5c2.8,0,6.7,0.2,7.2,0.2c0.6,0,4.3-0.2,6.2-0.2c0.7,0,1,0.1,1,0.5c0,0.3-0.3,0.4-0.5,0.4
			c-0.4,0-0.8,0.1-1.6,0.2c-1.7,0.3-2.2,1.4-2.3,3.6c-0.1,2-0.1,3.8-0.1,13.6V28c0,9.1,2,13,4.7,15.6c3.1,2.9,5.9,3.5,9.5,3.5
			c3.8,0,7.6-1.8,9.9-4.5c2.9-3.6,3.7-8.9,3.7-15.4v-7.9c0-9.8,0-11.6-0.1-13.6C357.5,3.4,357,2.4,355,2c-0.5-0.1-1.6-0.2-2.1-0.2
			c-0.3,0-0.5-0.1-0.5-0.4c0-0.4,0.3-0.5,1-0.5c2.8,0,6.3,0.2,6.7,0.2c0.4,0,3.4-0.2,5.3-0.2c0.7,0,1,0.1,1,0.5
			c0,0.3-0.3,0.4-0.5,0.4c-0.4,0-0.8,0-1.6,0.2c-1.7,0.3-2.2,1.4-2.3,3.6c-0.1,2-0.1,3.8-0.1,13.6v6.7c0,6.8-0.8,14.4-5.8,18.8
			c-4.5,4-9.3,4.7-13,4.7c-2.1,0-8.5-0.3-13-4.5c-3.1-3-5.5-7.4-5.5-16.6V19.2z"/>
		<path d="M397.7,30.2c0,6,0,11,0.3,13.7c0.2,1.8,0.6,3.2,2.5,3.5c0.9,0.1,2.3,0.3,2.8,0.3c0.4,0,0.5,0.2,0.5,0.4
			c0,0.3-0.3,0.5-1,0.5c-3.5,0-7.4-0.2-7.7-0.2s-4.3,0.2-6.2,0.2c-0.7,0-1-0.1-1-0.5c0-0.2,0.1-0.4,0.5-0.4c0.6,0,1.3-0.1,1.9-0.3
			c1.3-0.3,1.6-1.6,1.8-3.5c0.3-2.6,0.3-7.6,0.3-13.7V3.6l-9.3,0.1c-3.9,0.1-5.4,0.5-6.4,2c-0.7,1.1-0.9,1.5-1.1,2
			c-0.2,0.5-0.4,0.6-0.6,0.6c-0.2,0-0.3-0.2-0.3-0.6c0-0.6,1.3-6,1.4-6.6c0.1-0.4,0.4-1.2,0.6-1.2c0.4,0,1.1,0.6,2.8,0.8
			c1.8,0.2,4.2,0.3,5,0.3h23.6c4,0,5.7-0.6,6.2-0.6c0.3,0,0.3,0.4,0.3,0.8c0,1.9-0.2,6.2-0.2,6.9c0,0.6-0.2,0.8-0.4,0.8
			c-0.3,0-0.4-0.2-0.5-1.1l-0.1-0.7c-0.3-1.9-1.7-3.3-7.7-3.5l-7.9-0.1V30.2z"/>
		<path d="M468.7,30.2c0,6,0,11,0.3,13.7c0.2,1.8,0.6,3.2,2.5,3.5c0.9,0.1,2.3,0.3,2.8,0.3c0.4,0,0.5,0.2,0.5,0.4
			c0,0.3-0.3,0.5-1,0.5c-3.5,0-7.4-0.2-7.7-0.2c-0.3,0-4.3,0.2-6.2,0.2c-0.7,0-1-0.1-1-0.5c0-0.2,0.1-0.4,0.5-0.4
			c0.6,0,1.3-0.1,1.9-0.3c1.3-0.3,1.6-1.6,1.8-3.5c0.3-2.6,0.3-7.6,0.3-13.7v-6.6c0-0.3-0.2-0.4-0.4-0.4h-26.7
			c-0.2,0-0.4,0.1-0.4,0.4v6.6c0,6,0,11,0.3,13.7c0.2,1.8,0.6,3.2,2.5,3.5c0.9,0.1,2.3,0.3,2.8,0.3c0.4,0,0.5,0.2,0.5,0.4
			c0,0.3-0.3,0.5-1,0.5c-3.5,0-7.4-0.2-7.8-0.2c-0.3,0-4.3,0.2-6.2,0.2c-0.7,0-1-0.1-1-0.5c0-0.2,0.1-0.4,0.5-0.4
			c0.6,0,1.3-0.1,1.9-0.3c1.3-0.3,1.6-1.6,1.8-3.5c0.3-2.6,0.3-7.6,0.3-13.7V19.2c0-9.8,0-11.6-0.1-13.6c-0.1-2.1-0.6-3.2-2.7-3.6
			c-0.5-0.1-1.6-0.2-2.1-0.2c-0.3,0-0.5-0.1-0.5-0.4c0-0.4,0.3-0.5,1-0.5c2.8,0,6.8,0.2,7.1,0.2c0.3,0,4.3-0.2,6.2-0.2
			c0.7,0,1,0.1,1,0.5c0,0.3-0.3,0.4-0.5,0.4c-0.4,0-0.8,0.1-1.6,0.2c-1.7,0.3-2.2,1.4-2.3,3.6c-0.1,2-0.1,3.8-0.1,13.6v1.3
			c0,0.3,0.2,0.4,0.4,0.4h26.7c0.2,0,0.4-0.1,0.4-0.4v-1.3c0-9.8,0-11.6-0.1-13.6c-0.1-2.1-0.6-3.2-2.7-3.6
			c-0.5-0.1-1.6-0.2-2.1-0.2c-0.3,0-0.5-0.1-0.5-0.4c0-0.4,0.3-0.5,1-0.5c2.8,0,6.8,0.2,7.1,0.2c0.3,0,4.3-0.2,6.2-0.2
			c0.7,0,1,0.1,1,0.5c0,0.3-0.3,0.4-0.5,0.4c-0.4,0-0.8,0.1-1.6,0.2c-1.7,0.3-2.2,1.4-2.3,3.6c-0.1,2-0.1,3.8-0.1,13.6V30.2z"/>
	</g>
	<g>
		<path d="M79,99.3c-3.2-2.9-4-6.6-4-9.8c0-2.2,0.8-6.1,3.7-9c2-2,5-3.5,10.1-3.5c1.3,0,3.2,0.1,4.8,0.4c1.3,0.2,2.3,0.4,3.4,0.5
			c0.4,0,0.4,0.2,0.4,0.4c0,0.3-0.1,0.7-0.2,1.8c-0.1,1.1-0.1,2.9-0.1,3.4c0,0.5-0.1,0.7-0.3,0.7c-0.2,0-0.3-0.2-0.3-0.7
			c0-1.3-0.5-2.6-1.4-3.4c-1.2-1-3.7-1.9-6.6-1.9c-4.4,0-6.4,1.3-7.6,2.4c-2.4,2.3-3,5.2-3,8.6c0,6.3,4.9,12.1,11.9,12.1
			c2.5,0,4.4-0.3,5.7-1.7c0.7-0.7,1.1-2.2,1.2-2.8c0.1-0.4,0.1-0.5,0.3-0.5c0.2,0,0.2,0.2,0.2,0.5c0,0.2-0.4,3.1-0.7,4.2
			c-0.2,0.6-0.3,0.7-0.9,1c-1.3,0.5-3.8,0.8-5.9,0.8C84.9,102.9,81.6,101.7,79,99.3z"/>
		<path d="M113.5,77c7.4,0,13,4.7,13,12.4c0,7.4-5.2,13.5-13.2,13.5c-9,0-12.8-7-12.8-13C100.5,84.6,104.4,77,113.5,77z
			 M114.2,101.6c3,0,9.1-1.7,9.1-11.3c0-7.9-4.8-12.2-10-12.2c-5.5,0-9.6,3.6-9.6,10.9C103.7,96.7,108.3,101.6,114.2,101.6z"/>
		<path d="M132.9,87c0-5.1,0-6.1-0.1-7.1c-0.1-1.1-0.3-1.7-1.4-1.9c-0.3-0.1-0.8-0.1-1.1-0.1c-0.1,0-0.3-0.1-0.3-0.2
			c0-0.2,0.2-0.3,0.5-0.3c1.5,0,3.6,0.1,3.7,0.1c0.7,0,7.4,0,8.1,0c0.6,0,1.2,0,1.5-0.1c0.2-0.1,0.3-0.2,0.5-0.2s0.2,0.1,0.2,0.3
			c0,0.2-0.2,0.6-0.3,1.6c0,0.3-0.1,1.8-0.2,2.2c0,0.2-0.1,0.4-0.3,0.4s-0.2-0.2-0.2-0.4c0-0.3-0.1-0.8-0.3-1.3
			c-0.2-0.4-1-1-2.2-1.1l-5.1-0.1c-0.2,0-0.3,0.1-0.3,0.4v9.1c0,0.2,0,0.3,0.2,0.3l4.2,0c0.6,0,1,0,1.5,0c0.8-0.1,1.2-0.2,1.5-0.6
			c0.1-0.2,0.2-0.3,0.4-0.3c0.1,0,0.2,0.1,0.2,0.3c0,0.2-0.2,0.8-0.3,1.8c-0.1,0.7-0.1,2-0.1,2.2c0,0.3,0,0.6-0.2,0.6
			c-0.2,0-0.2-0.1-0.2-0.3c0-0.3-0.1-0.8-0.2-1.2c-0.2-0.5-0.7-1.1-1.7-1.2c-0.8-0.1-4.4-0.1-5-0.1c-0.2,0-0.2,0.1-0.2,0.3v2.8
			c0,3.2,0,5.8,0.2,7.2c0.1,1,0.3,1.7,1.3,1.8c0.5,0.1,1.2,0.1,1.5,0.1c0.2,0,0.3,0.1,0.3,0.2c0,0.2-0.2,0.3-0.5,0.3
			c-1.8,0-3.9-0.1-4.1-0.1s-2.2,0.1-3.2,0.1c-0.4,0-0.5-0.1-0.5-0.3c0-0.1,0.1-0.2,0.3-0.2c0.3,0,0.7-0.1,1-0.1
			c0.7-0.1,0.8-0.9,1-1.8c0.2-1.4,0.2-4,0.2-7.2V87z"/>
		<path d="M151.7,87c0-5.1,0-6.1-0.1-7.1c-0.1-1.1-0.3-1.7-1.4-1.9c-0.3-0.1-0.8-0.1-1.1-0.1c-0.1,0-0.3-0.1-0.3-0.2
			c0-0.2,0.2-0.3,0.5-0.3c1.5,0,3.6,0.1,3.7,0.1c0.7,0,7.4,0,8.1,0c0.6,0,1.2,0,1.5-0.1c0.2-0.1,0.3-0.2,0.5-0.2s0.2,0.1,0.2,0.3
			c0,0.2-0.2,0.6-0.3,1.6c0,0.3-0.1,1.8-0.2,2.2c0,0.2-0.1,0.4-0.3,0.4s-0.2-0.2-0.2-0.4c0-0.3-0.1-0.8-0.3-1.3
			c-0.2-0.4-1-1-2.2-1.1l-5.1-0.1c-0.2,0-0.3,0.1-0.3,0.4v9.1c0,0.2,0,0.3,0.2,0.3l4.2,0c0.6,0,1,0,1.5,0c0.8-0.1,1.2-0.2,1.5-0.6
			c0.1-0.2,0.2-0.3,0.4-0.3c0.1,0,0.2,0.1,0.2,0.3c0,0.2-0.2,0.8-0.3,1.8c-0.1,0.7-0.1,2-0.1,2.2c0,0.3,0,0.6-0.2,0.6
			c-0.2,0-0.2-0.1-0.2-0.3c0-0.3-0.1-0.8-0.2-1.2c-0.2-0.5-0.7-1.1-1.7-1.2c-0.8-0.1-4.4-0.1-5-0.1c-0.2,0-0.2,0.1-0.2,0.3v2.8
			c0,3.2,0,5.8,0.2,7.2c0.1,1,0.3,1.7,1.3,1.8c0.5,0.1,1.2,0.1,1.5,0.1c0.2,0,0.3,0.1,0.3,0.2c0,0.2-0.2,0.3-0.5,0.3
			c-1.8,0-3.9-0.1-4.1-0.1s-2.2,0.1-3.2,0.1c-0.4,0-0.5-0.1-0.5-0.3c0-0.1,0.1-0.2,0.3-0.2c0.3,0,0.7-0.1,1-0.1
			c0.7-0.1,0.8-0.9,1-1.8c0.2-1.4,0.2-4,0.2-7.2V87z"/>
		<path d="M170.6,87c0-5.1,0-6.1-0.1-7.1c-0.1-1.1-0.3-1.7-1.4-1.9c-0.3-0.1-0.8-0.1-1.1-0.1c-0.1,0-0.3-0.1-0.3-0.2
			c0-0.2,0.2-0.3,0.5-0.3c1.5,0,3.6,0.1,3.7,0.1c0.2,0,6.8,0,7.6,0c0.6,0,1.2-0.1,1.4-0.2c0.2,0,0.3-0.2,0.5-0.2
			c0.1,0,0.1,0.1,0.1,0.3c0,0.2-0.2,0.6-0.3,1.6c0,0.3-0.1,1.8-0.2,2.2c0,0.2-0.1,0.4-0.2,0.4c-0.2,0-0.3-0.2-0.3-0.4
			c0-0.2,0-0.8-0.2-1.2c-0.2-0.5-0.6-0.9-2.3-1.1c-0.6-0.1-4.2-0.1-4.5-0.1c-0.1,0-0.2,0.1-0.2,0.3v9.1c0,0.2,0,0.3,0.2,0.3
			c0.4,0,4.5,0,5.2-0.1c0.8-0.1,1.3-0.1,1.6-0.5c0.2-0.3,0.4-0.4,0.5-0.4c0.1,0,0.2,0.1,0.2,0.3s-0.2,0.8-0.3,1.8
			c-0.1,0.7-0.1,1.9-0.1,2.1c0,0.3,0,0.6-0.2,0.6c-0.2,0-0.2-0.1-0.2-0.3c0-0.3,0-0.7-0.1-1.1c-0.1-0.5-0.4-1-1.7-1.2
			c-0.9-0.1-4.2-0.2-4.7-0.2c-0.2,0-0.2,0.1-0.2,0.2v2.9c0,1.1,0,5,0,5.6c0.1,2.3,0.6,2.7,3.8,2.7c0.9,0,2.3,0,3.2-0.4
			c0.9-0.4,1.3-1,1.5-2.4c0.1-0.4,0.1-0.5,0.3-0.5c0.2,0,0.2,0.3,0.2,0.5c0,0.3-0.3,2.5-0.4,3.2c-0.2,0.9-0.5,0.9-1.8,0.9
			c-5,0-7.2-0.2-8.2-0.2c-0.2,0-2.2,0.1-3.2,0.1c-0.4,0-0.5-0.1-0.5-0.3c0-0.1,0.1-0.2,0.3-0.2c0.3,0,0.7-0.1,1-0.1
			c0.7-0.1,0.8-0.9,1-1.8c0.2-1.4,0.2-4,0.2-7.2V87z"/>
		<path d="M190.1,87c0-5.1,0-6.1-0.1-7.1c-0.1-1.1-0.3-1.7-1.4-1.9c-0.3-0.1-0.8-0.1-1.1-0.1c-0.1,0-0.3-0.1-0.3-0.2
			c0-0.2,0.2-0.3,0.5-0.3c1.5,0,3.6,0.1,3.7,0.1c0.2,0,6.8,0,7.6,0c0.6,0,1.2-0.1,1.4-0.2c0.2,0,0.3-0.2,0.5-0.2
			c0.1,0,0.1,0.1,0.1,0.3c0,0.2-0.2,0.6-0.3,1.6c0,0.3-0.1,1.8-0.2,2.2c0,0.2-0.1,0.4-0.2,0.4c-0.2,0-0.3-0.2-0.3-0.4
			c0-0.2,0-0.8-0.2-1.2c-0.2-0.5-0.6-0.9-2.3-1.1c-0.6-0.1-4.2-0.1-4.5-0.1c-0.1,0-0.2,0.1-0.2,0.3v9.1c0,0.2,0,0.3,0.2,0.3
			c0.4,0,4.5,0,5.2-0.1c0.8-0.1,1.3-0.1,1.6-0.5c0.2-0.3,0.4-0.4,0.5-0.4c0.1,0,0.2,0.1,0.2,0.3s-0.2,0.8-0.3,1.8
			c-0.1,0.7-0.1,1.9-0.1,2.1c0,0.3,0,0.6-0.2,0.6c-0.2,0-0.2-0.1-0.2-0.3c0-0.3,0-0.7-0.1-1.1c-0.1-0.5-0.4-1-1.7-1.2
			c-0.9-0.1-4.2-0.2-4.7-0.2c-0.2,0-0.2,0.1-0.2,0.2v2.9c0,1.1,0,5,0,5.6c0.1,2.3,0.6,2.7,3.8,2.7c0.9,0,2.3,0,3.2-0.4
			c0.9-0.4,1.3-1,1.5-2.4c0.1-0.4,0.1-0.5,0.3-0.5c0.2,0,0.2,0.3,0.2,0.5c0,0.3-0.3,2.5-0.4,3.2c-0.2,0.9-0.5,0.9-1.8,0.9
			c-5,0-7.2-0.2-8.2-0.2c-0.2,0-2.2,0.1-3.2,0.1c-0.4,0-0.5-0.1-0.5-0.3c0-0.1,0.1-0.2,0.3-0.2c0.3,0,0.7-0.1,1-0.1
			c0.7-0.1,0.8-0.9,1-1.8c0.2-1.4,0.2-4,0.2-7.2V87z"/>
	</g>
	<g>
		<path d="M224,99.3c-3.2-2.9-4-6.6-4-9.8c0-2.2,0.8-6.1,3.7-9c2-2,5-3.5,10.1-3.5c1.3,0,3.2,0.1,4.8,0.4c1.3,0.2,2.3,0.4,3.4,0.5
			c0.4,0,0.4,0.2,0.4,0.4c0,0.3-0.1,0.7-0.2,1.8c-0.1,1.1-0.1,2.9-0.1,3.4s-0.1,0.7-0.3,0.7c-0.2,0-0.3-0.2-0.3-0.7
			c0-1.3-0.5-2.6-1.4-3.4c-1.2-1-3.7-1.9-6.6-1.9c-4.4,0-6.4,1.3-7.6,2.4c-2.4,2.3-3,5.2-3,8.6c0,6.3,4.9,12.1,11.9,12.1
			c2.5,0,4.4-0.3,5.7-1.7c0.7-0.7,1.1-2.2,1.2-2.8c0.1-0.4,0.1-0.5,0.3-0.5c0.2,0,0.2,0.2,0.2,0.5c0,0.2-0.4,3.1-0.7,4.2
			c-0.2,0.6-0.3,0.7-0.9,1c-1.3,0.5-3.8,0.8-5.9,0.8C229.9,102.9,226.6,101.7,224,99.3z"/>
		<path d="M258.5,77c7.4,0,13,4.7,13,12.4c0,7.4-5.2,13.5-13.2,13.5c-9,0-12.8-7-12.8-13C245.5,84.6,249.4,77,258.5,77z
			 M259.2,101.6c3,0,9.1-1.7,9.1-11.3c0-7.9-4.8-12.2-10-12.2c-5.5,0-9.6,3.6-9.6,10.9C248.7,96.7,253.3,101.6,259.2,101.6z"/>
		<path d="M303.1,98.2c0.1,1.2,0.4,3,1.8,3.5c1,0.3,1.8,0.3,2.1,0.3c0.2,0,0.3,0,0.3,0.2c0,0.2-0.3,0.3-0.7,0.3
			c-0.7,0-4.3-0.1-5.5-0.2c-0.8-0.1-0.9-0.2-0.9-0.3c0-0.1,0.1-0.2,0.2-0.2s0.2-0.6,0.1-1.2l-1.6-17h-0.1l-8.1,17.2
			c-0.7,1.5-0.8,1.7-1.1,1.7c-0.2,0-0.4-0.3-1-1.5c-0.9-1.6-3.7-7.3-3.9-7.7c-0.3-0.6-4-8.5-4.4-9.4h-0.1l-1.3,15.3
			c0,0.5,0,1.1,0,1.7c0,0.5,0.4,0.9,0.9,1c0.6,0.1,1.1,0.2,1.3,0.2c0.1,0,0.3,0.1,0.3,0.2c0,0.2-0.2,0.3-0.6,0.3
			c-1.2,0-2.8-0.1-3.1-0.1c-0.3,0-1.9,0.1-2.8,0.1c-0.3,0-0.6-0.1-0.6-0.3c0-0.1,0.2-0.2,0.3-0.2c0.3,0,0.5,0,1-0.1
			c1.1-0.2,1.2-1.5,1.3-2.7l2.4-21.5c0.1-0.4,0.2-0.6,0.4-0.6s0.3,0.1,0.5,0.5l10.1,20.8l9.7-20.7c0.1-0.3,0.3-0.5,0.5-0.5
			c0.2,0,0.3,0.3,0.4,0.9L303.1,98.2z"/>
		<path d="M312.5,87c0-5.1,0-6.1-0.1-7.1c-0.1-1.1-0.3-1.7-1.4-1.9c-0.3-0.1-0.8-0.1-1.1-0.1c-0.1,0-0.3-0.1-0.3-0.2
			c0-0.2,0.2-0.3,0.5-0.3c1.5,0,3.5,0.1,3.7,0.1c0.7,0,2.6-0.1,4.2-0.1c4.1,0,5.6,1.4,6.1,1.9c0.7,0.7,1.7,2.2,1.7,3.9
			c0,4.7-3.4,7.9-8.1,7.9c-0.2,0-0.5,0-0.7,0c-0.2,0-0.4-0.1-0.4-0.2c0-0.3,0.2-0.3,0.9-0.3c3.2,0,5.7-2.3,5.7-5.4
			c0-1.1-0.1-3.3-1.8-5.1s-3.8-1.7-4.5-1.7c-0.6,0-1.1,0.1-1.4,0.2c-0.2,0.1-0.3,0.3-0.3,0.6v13.6c0,3.2,0,5.8,0.2,7.2
			c0.1,1,0.3,1.7,1.3,1.8c0.5,0.1,1.2,0.1,1.5,0.1c0.2,0,0.3,0.1,0.3,0.2c0,0.2-0.2,0.3-0.5,0.3c-1.8,0-3.9-0.1-4.1-0.1
			c-0.1,0-2.2,0.1-3.2,0.1c-0.4,0-0.5-0.1-0.5-0.3c0-0.1,0.1-0.2,0.3-0.2c0.3,0,0.7-0.1,1-0.1c0.7-0.1,0.8-0.9,1-1.8
			c0.2-1.4,0.2-4,0.2-7.2V87z"/>
		<path d="M336.3,78.3c0.4-1.1,0.5-1.3,0.7-1.3s0.3,0.2,0.7,1.2c0.5,1.3,5.7,14.9,7.7,19.9c1.2,2.9,2.1,3.5,2.8,3.7
			c0.5,0.2,1,0.2,1.3,0.2c0.2,0,0.3,0,0.3,0.2c0,0.2-0.3,0.3-0.7,0.3c-0.5,0-2.9,0-5.2-0.1c-0.6,0-1,0-1-0.2c0-0.1,0.1-0.2,0.2-0.2
			c0.2-0.1,0.4-0.4,0.2-0.9l-3.1-8.1c-0.1-0.1-0.1-0.2-0.3-0.2h-7.1c-0.2,0-0.3,0.1-0.3,0.3l-2,5.8c-0.3,0.8-0.5,1.6-0.5,2.2
			c0,0.7,0.7,1,1.3,1h0.3c0.2,0,0.3,0.1,0.3,0.2c0,0.2-0.2,0.3-0.5,0.3c-0.8,0-2.2-0.1-2.6-0.1c-0.4,0-2.2,0.1-3.7,0.1
			c-0.4,0-0.6-0.1-0.6-0.3c0-0.1,0.1-0.2,0.3-0.2c0.2,0,0.7,0,1-0.1c1.5-0.2,2.2-1.5,2.8-3.1L336.3,78.3z M339.7,91.5
			c0.2,0,0.2-0.1,0.1-0.2l-3.1-8.9c-0.2-0.5-0.3-0.5-0.5,0l-2.9,8.9c-0.1,0.2,0,0.2,0.1,0.2H339.7z"/>
		<path d="M354.9,97.9c0.1,2.7,0.4,3.6,1.3,3.8c0.6,0.2,1.4,0.2,1.7,0.2c0.2,0,0.3,0.1,0.3,0.2c0,0.2-0.2,0.3-0.6,0.3
			c-1.9,0-3.2-0.1-3.5-0.1s-1.7,0.1-3.2,0.1c-0.3,0-0.5,0-0.5-0.3c0-0.1,0.1-0.2,0.3-0.2c0.3,0,0.9,0,1.4-0.2c0.8-0.2,1-1.2,1-4.2
			l0-18.9c0-1.3,0.1-1.7,0.4-1.7s0.8,0.7,1.2,1.1c0.5,0.6,5.4,5.9,10.5,11.3c3.3,3.5,6.9,7.5,7.9,8.6l-0.4-16.8
			c0-2.1-0.3-2.9-1.3-3.1c-0.6-0.1-1.4-0.2-1.6-0.2c-0.2,0-0.3-0.1-0.3-0.2c0-0.2,0.3-0.2,0.7-0.2c1.5,0,3.1,0.1,3.4,0.1
			s1.5-0.1,2.8-0.1c0.4,0,0.6,0,0.6,0.2c0,0.1-0.1,0.2-0.4,0.2c-0.2,0-0.4,0-0.8,0.1c-1.1,0.2-1.2,1-1.2,2.9l-0.1,19.3
			c0,2.2-0.1,2.3-0.3,2.3c-0.3,0-0.7-0.4-2.4-2.1c-0.4-0.3-5.1-5.2-8.6-8.9c-3.8-4.1-7.6-8.3-8.6-9.5L354.9,97.9z"/>
		<path d="M388.2,93.9c0-1.8-0.3-2.5-0.8-3.5c-0.2-0.5-4.7-7.8-5.8-9.5c-0.8-1.2-1.7-2-2.2-2.4c-0.5-0.3-1.1-0.5-1.4-0.5
			c-0.2,0-0.3-0.1-0.3-0.2c0-0.1,0.1-0.2,0.4-0.2c0.6,0,3.1,0.1,3.3,0.1c0.2,0,1.5-0.1,2.8-0.1c0.4,0,0.4,0.1,0.4,0.2
			c0,0.1-0.2,0.2-0.5,0.3c-0.3,0.1-0.4,0.3-0.4,0.6c0,0.4,0.2,0.8,0.4,1.3c0.5,1,5.5,9.5,6.1,10.4c0.6-1.4,4.8-8.6,5.5-9.7
			c0.4-0.7,0.6-1.3,0.6-1.7c0-0.5-0.1-0.8-0.5-0.9c-0.3-0.1-0.5-0.2-0.5-0.3c0-0.1,0.2-0.2,0.5-0.2c0.9,0,1.9,0.1,2.2,0.1
			c0.2,0,2.6-0.1,3.2-0.1c0.2,0,0.4,0.1,0.4,0.2c0,0.2-0.2,0.3-0.4,0.3c-0.4,0-1,0.1-1.5,0.5c-0.7,0.4-1,0.8-1.8,1.7
			c-1.1,1.3-5.7,9.1-6.3,10.5c-0.5,1.2-0.5,2.2-0.5,3.3v2.8c0,0.5,0,1.9,0.1,3.3c0.1,1,0.4,1.7,1.4,1.8c0.5,0.1,1.2,0.1,1.5,0.1
			c0.2,0,0.3,0.1,0.3,0.2c0,0.2-0.2,0.3-0.5,0.3c-1.8,0-3.9-0.1-4.1-0.1s-2.2,0.1-3.2,0.1c-0.4,0-0.5-0.1-0.5-0.3
			c0-0.1,0.1-0.2,0.3-0.2c0.3,0,0.7-0.1,1-0.1c0.7-0.1,1-0.9,1-1.8c0.1-1.4,0.1-2.8,0.1-3.3V93.9z"/>
	</g>
</g>
</svg>
